# xmcd
#
# Track frame offsets:
#	150
#	12719
#	24467
#	37734
#	50171
#	63022
#	75676
#	87138
#	99296
#	111348
#	123960
#	134136
#	147082
#	160309
#	171214
#	184216
#	195720
#	208830
#	222094
#	236181
#	249207
#	260018
#	270042
#	279257
#	290033
#
# Disc length: 3996 seconds
# Revision: 1
# Processed by: cddbd v1.5.2PL0 Copyright (c) Steve Scherf et al.
# Submitted via: dBpowerAMP V12.0
#
DISCID=6c0f9a19
DTITLE=Various Artist - Let Me Tell You About The Blues - Nashville
DYEAR=1954
DGENRE=Blues
TTITLE0=Arthur Gunter - Baby Let's Play House
TTITLE1=Louis Brooks and The Hi-Toppers - Bus Station Blues
TTITLE2=Kid King's Combo - The Brass Rail
TTITLE3=Dixie Doodlers - Best Of Friends
TTITLE4=Tommy McGhee - Late Every Evening
TTITLE5=Shy Guy Douglas - I'm Your Country Man
TTITLE6=Arthur Gunter - Blues After Hours
TTITLE7=The Blue Flamers - Driving Down The Highway
TTITLE8=Louis Brooks and The Hi-Toppers - It's Love Baby (24 Hours A Day)
TTITLE9=Louis Campbell - Gotta Have You Baby
TTITLE10=Jerry McCain - Courtin' In A Cadillac
TTITLE11=Slim Hunt - Lonesome For My Baby
TTITLE12=Beulah Bryant - Prize Fightin' Papa
TTITLE13=Bernard Hardison - Too Much
TTITLE14=Shy Guy Douglas - Wasted Time
TTITLE15=Louis Campbell - The Natural Facts
TTITLE16=Blues Rockers - Johnny Mae
TTITLE17=Good Rockin' Sam - Don't Let Daddy Slow Walk You Down
TTITLE18=Little Al - No Jive
TTITLE19=Rudy Green - Cool Lovin' Mama
TTITLE20=Jerry McCain - That's What They Want
TTITLE21=Lillian Offitt - Miss You So
TTITLE22=Little Al - Little Lean Woman
TTITLE23=Earl Gaines with Louis Brooks and His Hi-Toppers - I Don't Need You Now
TTITLE24=Jimmy Beck and His Orchestra - Pipe Dreams
EXTD=
EXTT0=
EXTT1=
EXTT2=
EXTT3=
EXTT4=
EXTT5=
EXTT6=
EXTT7=
EXTT8=
EXTT9=
EXTT10=
EXTT11=
EXTT12=
EXTT13=
EXTT14=
EXTT15=
EXTT16=
EXTT17=
EXTT18=
EXTT19=
EXTT20=
EXTT21=
EXTT22=
EXTT23=
EXTT24=
PLAYORDER=
